<svg xmlns="http://www.w3.org/2000/svg" width="118" height="46" viewBox="0 0 118 46">
  <defs>
    <style>
      .cls-1 {
        fill: #fff;
        fill-rule: evenodd;
      }
    </style>
  </defs>
  <path id="jomblodietwice" class="cls-1" d="M4.448,25.566q0,2.675-1.816,2.675a3.2,3.2,0,0,1-1.3-.36v2.888a4.991,4.991,0,0,0,1.571.294,4.344,4.344,0,0,0,3.583-1.62,5.34,5.34,0,0,0,1.023-3.436V19.119H4.448v6.447Zm0.364-9.649A1.447,1.447,0,0,0,4.788,18a1.53,1.53,0,0,0,1.1.409A1.53,1.53,0,0,0,6.988,18a1.447,1.447,0,0,0-.025-2.082A1.541,1.541,0,0,0,4.812,15.917Zm5,4.254a4.036,4.036,0,0,0-1.26,3.015,4.077,4.077,0,0,0,1.26,3.006,4.157,4.157,0,0,0,3.035,1.248A4.151,4.151,0,0,0,15.883,26.2a4.231,4.231,0,0,0,.016-6,4.043,4.043,0,0,0-2.974-1.248A4.29,4.29,0,0,0,9.816,20.171Zm3.87,2.151a1.266,1.266,0,0,1,0,1.739,1.147,1.147,0,0,1-1.669,0,1.266,1.266,0,0,1,0-1.739A1.166,1.166,0,0,1,13.686,22.322Zm15.7,0.274a3.839,3.839,0,0,0-.728-2.528A3.032,3.032,0,0,0,26.2,18.956,3.534,3.534,0,0,0,23.8,20.1a3.28,3.28,0,0,0-2.438-1.145,3,3,0,0,0-2.242.961,3.245,3.245,0,0,0-.925,2.336v5.023h3.06V22.883q0-.908.507-0.908a0.408,0.408,0,0,1,.389.2,1.566,1.566,0,0,1,.111.7v4.4h3.06V22.883q0-.908.515-0.908a0.4,0.4,0,0,1,.384.2,1.622,1.622,0,0,1,.106.7v4.4h3.06V22.6Zm1.194-6.488v6.8a4.608,4.608,0,0,0,.982,3.052A4.015,4.015,0,0,0,33,27.039a4.368,4.368,0,0,0,4.864-.826,4.261,4.261,0,0,0,.02-6.013,4.013,4.013,0,0,0-2.957-1.244q-0.278,0-.818.049v3.371a1.424,1.424,0,0,1,.769-0.294,1.071,1.071,0,0,1,.8.34,1.163,1.163,0,0,1,.327.839,1.107,1.107,0,0,1-.348.822,1.167,1.167,0,0,1-.847.34q-1.17,0-1.17-1.628V16.109H30.58Zm9.319,0V27.276h3.06V16.109H39.9Zm5.33,4.062a4.036,4.036,0,0,0-1.26,3.015,4.077,4.077,0,0,0,1.26,3.006,4.316,4.316,0,0,0,6.066,0,4.232,4.232,0,0,0,.016-6,4.043,4.043,0,0,0-2.974-1.248A4.291,4.291,0,0,0,45.229,20.171Zm3.87,2.151a1.266,1.266,0,0,1,0,1.739,1.147,1.147,0,0,1-1.669,0,1.266,1.266,0,0,1,0-1.739A1.166,1.166,0,0,1,49.1,22.322Zm9.532,0.471q0,1.628-1.178,1.628a1.171,1.171,0,0,1-.843-0.34,1.091,1.091,0,0,1-.352-0.814,1.157,1.157,0,0,1,.34-0.838,1.1,1.1,0,0,1,.814-0.348,1.221,1.221,0,0,1,.753.294V19q-0.548-.049-0.818-0.049a4,4,0,0,0-2.945,1.26A4.107,4.107,0,0,0,53.158,23.2a4.053,4.053,0,0,0,1.252,3.011,4.368,4.368,0,0,0,4.864.826,4.015,4.015,0,0,0,1.436-1.08,4.608,4.608,0,0,0,.982-3.052v-6.8h-3.06v6.684Zm4.116-3.673v8.156h3.06V19.119h-3.06Zm0.462-3.2A1.448,1.448,0,0,0,63.184,18a1.684,1.684,0,0,0,2.2,0,1.448,1.448,0,0,0-.024-2.082A1.541,1.541,0,0,0,63.209,15.917Zm12.157,7.2a4.122,4.122,0,0,0-4.189-4.181,4.187,4.187,0,0,0-3.064,1.235,4.3,4.3,0,0,0-.012,6.046,4.174,4.174,0,0,0,3.051,1.219,4.28,4.28,0,0,0,2.708-.957l-1.743-2.094a1.218,1.218,0,0,1-.883.458,1.069,1.069,0,0,1-.912-0.491,2.174,2.174,0,0,1-.348-1.284,2.043,2.043,0,0,1,.36-1.248,1.11,1.11,0,0,1,.933-0.487,0.962,0.962,0,0,1,1.023.908H70.736a2.143,2.143,0,0,0-.041,1.448h4.639q0.033-.393.033-0.573h0Zm0.753-7.011v6.7a4.968,4.968,0,0,0,.7,2.8A3.967,3.967,0,0,0,78.3,26.916a4.158,4.158,0,0,0,1.959.483q0.115,0,.352-0.008V24.175a1.409,1.409,0,0,1-1.125-.368,2.162,2.162,0,0,1-.307-1.342h1.374V19.234H79.179V16.109h-3.06Zm6.047,7.8a3.858,3.858,0,0,0,.728,2.528,3.031,3.031,0,0,0,2.454,1.113,3.513,3.513,0,0,0,2.405-1.145,3.279,3.279,0,0,0,2.438,1.145,3,3,0,0,0,2.242-.961,3.245,3.245,0,0,0,.924-2.336V19.234H90.3v4.393q0,0.916-.507.916a0.4,0.4,0,0,1-.388-0.2,1.619,1.619,0,0,1-.111-0.716V19.234h-3.06v4.393q0,0.916-.515.916a0.4,0.4,0,0,1-.385-0.2,1.677,1.677,0,0,1-.106-0.716V19.234h-3.06v4.68Zm12.566-4.794v8.156h3.06V19.119h-3.06Zm0.462-3.2A1.447,1.447,0,0,0,95.17,18a1.684,1.684,0,0,0,2.2,0,1.448,1.448,0,0,0-.025-2.082A1.541,1.541,0,0,0,95.195,15.917Zm8.009,8.512a1.2,1.2,0,0,1-.887-0.36,1.215,1.215,0,0,1-.356-0.892,1.189,1.189,0,0,1,.335-0.867,1.149,1.149,0,0,1,.859-0.344,1.23,1.23,0,0,1,1.015.524l3.1-.115a4.251,4.251,0,0,0-7.158-2.2,3.987,3.987,0,0,0-1.252,2.953A4.191,4.191,0,0,0,100.1,26.2a4.111,4.111,0,0,0,3.039,1.252,4.019,4.019,0,0,0,2.888-1.137,4.321,4.321,0,0,0,1.317-2.9l-3.035.115a1.155,1.155,0,0,1-1.105.908h0Zm13.287-1.309a4.122,4.122,0,0,0-4.189-4.181,4.188,4.188,0,0,0-3.064,1.235,4.3,4.3,0,0,0-.012,6.046,4.176,4.176,0,0,0,3.052,1.219,4.282,4.282,0,0,0,2.708-.957l-1.743-2.094a1.218,1.218,0,0,1-.884.458,1.07,1.07,0,0,1-.912-0.491,2.173,2.173,0,0,1-.347-1.284,2.037,2.037,0,0,1,.36-1.248,1.108,1.108,0,0,1,.932-0.487,0.962,0.962,0,0,1,1.023.908H111.86a2.27,2.27,0,0,0-.147.8,2.247,2.247,0,0,0,.107.646h4.638q0.033-.393.033-0.573h0Z"/>
</svg>
